<svg preserveAspectRatio="none" width="100%" height="100%" overflow="visible" style="display: block;" viewBox="0 0 18.3333 16.6667" fill="none" xmlns="http://www.w3.org/2000/svg">
<path id="Union" d="M7.5 0C10.2614 0 12.5 2.23858 12.5 5C12.5 6.62147 11.7269 8.06104 10.5306 8.97461C11.3697 9.34528 12.1424 9.86861 12.8035 10.5298C14.2101 11.9363 15 13.8442 15 15.8333C15 16.2936 14.6269 16.6667 14.1667 16.6667C13.7064 16.6667 13.3333 16.2936 13.3333 15.8333C13.3333 14.2862 12.7191 12.8021 11.6252 11.7082C10.5995 10.6825 9.23081 10.0788 7.7889 10.0073L7.5 10C5.9529 10 4.4688 10.6142 3.37484 11.7082C2.28088 12.8021 1.66667 14.2862 1.66667 15.8333C1.66667 16.2936 1.29357 16.6667 0.833333 16.6667C0.373096 16.6667 0 16.2936 0 15.8333C0 13.8442 0.789929 11.9363 2.19645 10.5298C2.85745 9.86879 3.62974 9.34526 4.46859 8.97461C3.27257 8.06102 2.5 6.62124 2.5 5C2.5 2.23858 4.73858 0 7.5 0ZM13.0745 0.992025C13.3092 0.596319 13.8205 0.465439 14.2163 0.69987C14.9232 1.11912 15.5164 1.70681 15.9424 2.40967C16.3682 3.11243 16.614 3.90934 16.6585 4.72982C16.703 5.55047 16.5445 6.36945 16.1971 7.11426C15.9938 7.55003 15.7278 7.95113 15.4118 8.30892C16.972 9.82797 18.3333 12.3144 18.3333 15C18.3333 15.4602 17.9602 15.8332 17.5 15.8333C17.0398 15.8333 16.6667 15.4602 16.6667 15C16.6666 12.4911 15.1545 10.1161 13.6662 8.99984C13.4566 8.84246 13.3334 8.59541 13.3333 8.33333C13.3334 8.07123 13.4566 7.82419 13.6662 7.66683C14.1044 7.33802 14.4551 6.90603 14.6867 6.40951C14.9183 5.91302 15.024 5.36719 14.9943 4.82015C14.9646 4.27304 14.8006 3.7417 14.5166 3.27311C14.2327 2.80466 13.8378 2.41327 13.3667 2.13379C12.9711 1.89905 12.8401 1.38778 13.0745 0.992025ZM7.5 1.66667C5.65905 1.66667 4.16667 3.15905 4.16667 5C4.16667 6.84095 5.65905 8.33333 7.5 8.33333C9.34095 8.33333 10.8333 6.84095 10.8333 5C10.8333 3.15905 9.34095 1.66667 7.5 1.66667Z" fill="white"/>
</svg>
